<svg version="1.1" id="Layer_1" xmlns="http://www.w3.org/2000/svg" xmlns:xlink="http://www.w3.org/1999/xlink" x="0px" y="0px"
	 width="100%" viewBox="0 0 1567 1572" enable-background="new 0 0 1567 1572" xml:space="preserve">
<path fill="#055E47" opacity="1.000000" stroke="none" 
	d="
M864.000000,1573.000000 
	C576.000061,1573.000000 288.500092,1573.000000 1.000116,1573.000000 
	C1.000077,1049.000122 1.000077,525.000305 1.000039,1.000327 
	C523.333069,1.000218 1045.666138,1.000218 1567.999512,1.000109 
	C1567.999634,524.999695 1567.999634,1048.999390 1567.999756,1572.999512 
	C1333.500000,1573.000000 1099.000000,1573.000000 864.000000,1573.000000 
M1000.391357,528.178162 
	C966.651062,513.632507 936.802856,493.244781 910.446533,467.755371 
	C874.741516,433.224762 849.240479,392.039093 831.309143,345.902405 
	C824.610352,328.666748 807.911255,317.510040 789.788513,317.344879 
	C771.439636,317.177673 754.534180,328.378387 747.394104,345.452850 
	C745.595337,349.754364 743.878906,354.090393 742.067688,358.386566 
	C715.754211,420.800232 675.055603,471.270813 617.368408,507.317474 
	C547.644958,550.885071 473.399872,561.002747 395.202667,534.701111 
	C337.655609,515.345154 292.093933,478.777863 255.470901,431.154083 
	C210.776321,373.034210 187.150177,306.539795 181.228287,233.732605 
	C179.650497,214.334290 180.212814,194.771683 179.243576,175.311829 
	C177.768692,145.700424 149.182602,124.285767 120.272842,130.739548 
	C97.394485,135.846878 81.840462,155.883499 81.465683,181.301208 
	C81.045181,209.819397 82.198341,238.261963 86.073959,266.571075 
	C94.244629,326.252991 111.601372,382.911682 141.355331,435.503540 
	C181.212616,505.953735 235.025391,562.835327 306.295959,601.939270 
	C376.516357,640.466980 451.596466,655.668457 531.095093,642.781982 
	C622.533264,627.960266 697.733887,583.355408 758.709595,514.251099 
	C769.687927,501.809357 779.414978,488.263489 789.806152,475.118073 
	C789.870483,475.187988 790.360413,475.592590 790.692810,476.100342 
	C814.965942,513.174561 845.403320,544.451660 880.658020,571.078979 
	C940.022766,615.916260 1006.755432,642.257202 1081.092407,646.481689 
	C1158.646851,650.888916 1230.689575,631.057922 1295.358643,588.273560 
	C1397.504639,520.695007 1459.245728,425.027557 1485.692871,306.093597 
	C1494.995239,264.259857 1497.982422,221.731323 1496.985107,178.925629 
	C1496.502075,158.195053 1483.890381,139.815842 1465.709839,132.893387 
	C1446.921387,125.739479 1426.064697,130.418320 1412.461182,145.006805 
	C1403.415894,154.707108 1398.872437,166.347977 1399.106445,179.565186 
	C1399.659424,210.804520 1397.738159,241.815887 1392.121826,272.599152 
	C1376.670654,357.287567 1337.824829,428.731689 1271.617554,484.392365 
	C1226.732422,522.127380 1175.119995,544.202576 1116.256958,548.314331 
	C1076.247314,551.109131 1038.013428,543.593628 1000.391357,528.178162 
M1264.605957,849.935486 
	C1263.161499,850.325073 1261.700073,850.661011 1260.275146,851.112427 
	C1235.497070,858.962158 1221.143677,884.977783 1227.419678,910.639709 
	C1233.553833,935.721558 1258.345703,951.992126 1283.542236,947.472046 
	C1310.578735,942.621826 1328.385498,917.018982 1323.514526,889.999390 
	C1318.502319,862.196045 1293.207642,844.686096 1264.605957,849.935486 
M837.669373,1442.119751 
	C837.898621,1439.970459 838.308716,1437.822754 838.328979,1435.671509 
	C838.524109,1415.011230 829.908203,1398.962158 811.545959,1389.541382 
	C793.616150,1380.342529 775.462402,1381.778687 759.395081,1394.209839 
	C743.089478,1406.825439 736.879883,1424.046753 741.139709,1444.299683 
	C745.931946,1467.083374 766.296143,1483.092041 789.355835,1483.027588 
	C812.864197,1482.961914 832.130188,1466.908203 837.669373,1442.119751 
M282.825562,943.724915 
	C290.440247,945.136230 298.065216,947.797729 305.667786,947.735107 
	C333.475281,947.506042 355.013062,921.459961 352.026245,892.641846 
	C349.155334,864.941895 322.668182,844.576721 295.685394,849.323242 
	C273.981995,853.141052 257.667847,869.975220 254.424393,891.899414 
	C251.343628,912.723938 262.323730,933.102722 282.825562,943.724915 
M749.390015,1147.106201 
	C759.584717,1160.393677 772.863831,1167.328613 789.803955,1166.991699 
	C809.887451,1166.592407 824.573059,1157.334351 833.238831,1139.464478 
	C842.201599,1120.982178 839.911194,1102.949219 827.404236,1086.895142 
	C815.158691,1071.176758 798.392151,1065.344116 778.962219,1069.339722 
	C744.307800,1076.466187 729.221008,1115.798218 749.390015,1147.106201 
M808.456482,1229.987305 
	C798.719849,1226.051880 788.594238,1225.471313 778.494080,1227.596436 
	C751.202332,1233.338501 734.464783,1261.150269 741.616760,1288.348145 
	C748.821960,1315.748413 776.478699,1331.298706 803.575134,1323.185059 
	C822.027039,1317.660034 836.436523,1299.901855 838.063416,1280.682007 
	C839.892822,1259.069580 828.783325,1239.699463 808.456482,1229.987305 
M1180.970337,845.382080 
	C1181.100952,842.888184 1181.352905,840.393860 1181.343506,837.900513 
	C1181.254395,814.345581 1164.733887,794.084656 1142.042725,789.640991 
	C1119.157349,785.159302 1095.728394,797.609619 1086.990479,818.896118 
	C1077.984131,840.836914 1085.572632,866.769592 1105.257324,879.405518 
	C1135.798828,899.010803 1175.049438,881.048889 1180.970337,845.382080 
M473.285126,797.194824 
	C453.807495,784.494202 429.710571,786.217834 412.891388,801.514771 
	C396.077637,816.806885 391.754669,841.411926 402.390106,861.285217 
	C413.206818,881.497253 436.060455,891.851562 458.306549,885.818542 
	C477.227966,880.687073 489.672272,868.191162 493.678833,848.963928 
	C498.046783,828.002380 491.120087,810.627014 473.285126,797.194824 
M553.965942,898.529419 
	C565.865845,919.142883 586.886108,928.453064 609.472229,923.114014 
	C629.421509,918.398254 644.667480,900.163940 646.029114,879.391357 
	C647.514038,856.739685 634.611511,836.449463 613.798584,828.706543 
	C595.358521,821.846375 574.488220,827.222900 560.492493,842.439087 
	C546.998413,857.109863 544.379028,878.171936 553.965942,898.529419 
M975.170410,924.239258 
	C1002.448303,927.533997 1026.109131,908.767639 1029.506104,881.143555 
	C1032.775879,854.553528 1013.554810,829.626526 987.134521,826.193604 
	C960.755554,822.766052 935.369202,842.358032 932.236145,868.561584 
	C928.967957,895.895264 947.754028,920.711670 975.170410,924.239258 
M676.600708,1018.897095 
	C695.340149,1036.239868 720.965027,1037.948975 740.454468,1023.155884 
	C759.931702,1008.372253 765.410645,982.173340 753.676331,959.931763 
	C742.687012,939.102356 717.968994,929.324097 695.196533,936.797668 
	C661.163269,947.966858 651.036194,991.244324 676.600708,1018.897095 
M914.919678,995.294434 
	C915.073425,994.306824 915.224548,993.318787 915.381531,992.331665 
	C919.401306,967.046509 904.567810,942.774231 881.074585,936.195435 
	C856.498840,929.313599 831.767944,941.467896 821.714844,965.368408 
	C811.112244,990.574951 824.820190,1020.933167 850.998657,1030.221313 
	C878.271545,1039.897949 906.630066,1024.718140 914.919678,995.294434 
z"/>
<path fill="#FCFEFD" opacity="1.000000" stroke="none" 
	d="
M1000.735474,528.343933 
	C1038.013428,543.593628 1076.247314,551.109131 1116.256958,548.314331 
	C1175.119995,544.202576 1226.732422,522.127380 1271.617554,484.392365 
	C1337.824829,428.731689 1376.670654,357.287567 1392.121826,272.599152 
	C1397.738159,241.815887 1399.659424,210.804520 1399.106445,179.565186 
	C1398.872437,166.347977 1403.415894,154.707108 1412.461182,145.006805 
	C1426.064697,130.418320 1446.921387,125.739479 1465.709839,132.893387 
	C1483.890381,139.815842 1496.502075,158.195053 1496.985107,178.925629 
	C1497.982422,221.731323 1494.995239,264.259857 1485.692871,306.093597 
	C1459.245728,425.027557 1397.504639,520.695007 1295.358643,588.273560 
	C1230.689575,631.057922 1158.646851,650.888916 1081.092407,646.481689 
	C1006.755432,642.257202 940.022766,615.916260 880.658020,571.078979 
	C845.403320,544.451660 814.965942,513.174561 790.692810,476.100342 
	C790.360413,475.592590 789.870483,475.187988 789.806152,475.118073 
	C779.414978,488.263489 769.687927,501.809357 758.709595,514.251099 
	C697.733887,583.355408 622.533264,627.960266 531.095093,642.781982 
	C451.596466,655.668457 376.516357,640.466980 306.295959,601.939270 
	C235.025391,562.835327 181.212616,505.953735 141.355331,435.503540 
	C111.601372,382.911682 94.244629,326.252991 86.073959,266.571075 
	C82.198341,238.261963 81.045181,209.819397 81.465683,181.301208 
	C81.840462,155.883499 97.394485,135.846878 120.272842,130.739548 
	C149.182602,124.285767 177.768692,145.700424 179.243576,175.311829 
	C180.212814,194.771683 179.650497,214.334290 181.228287,233.732605 
	C187.150177,306.539795 210.776321,373.034210 255.470901,431.154083 
	C292.093933,478.777863 337.655609,515.345154 395.202667,534.701111 
	C473.399872,561.002747 547.644958,550.885071 617.368408,507.317474 
	C675.055603,471.270813 715.754211,420.800232 742.067688,358.386566 
	C743.878906,354.090393 745.595337,349.754364 747.394104,345.452850 
	C754.534180,328.378387 771.439636,317.177673 789.788513,317.344879 
	C807.911255,317.510040 824.610352,328.666748 831.309143,345.902405 
	C849.240479,392.039093 874.741516,433.224762 910.446533,467.755371 
	C936.802856,493.244781 966.651062,513.632507 1000.735474,528.343933 
z"/>
<path fill="#FAFDFC" opacity="1.000000" stroke="none" 
	d="
M1265.029785,849.871460 
	C1293.207642,844.686096 1318.502319,862.196045 1323.514526,889.999390 
	C1328.385498,917.018982 1310.578735,942.621826 1283.542236,947.472046 
	C1258.345703,951.992126 1233.553833,935.721558 1227.419678,910.639709 
	C1221.143677,884.977783 1235.497070,858.962158 1260.275146,851.112427 
	C1261.700073,850.661011 1263.161499,850.325073 1265.029785,849.871460 
z"/>
<path fill="#FBFDFC" opacity="1.000000" stroke="none" 
	d="
M837.566956,1442.530029 
	C832.130188,1466.908203 812.864197,1482.961914 789.355835,1483.027588 
	C766.296143,1483.092041 745.931946,1467.083374 741.139709,1444.299683 
	C736.879883,1424.046753 743.089478,1406.825439 759.395081,1394.209839 
	C775.462402,1381.778687 793.616150,1380.342529 811.545959,1389.541382 
	C829.908203,1398.962158 838.524109,1415.011230 838.328979,1435.671509 
	C838.308716,1437.822754 837.898621,1439.970459 837.566956,1442.530029 
z"/>
<path fill="#FAFDFC" opacity="1.000000" stroke="none" 
	d="
M282.492188,943.549194 
	C262.323730,933.102722 251.343628,912.723938 254.424393,891.899414 
	C257.667847,869.975220 273.981995,853.141052 295.685394,849.323242 
	C322.668182,844.576721 349.155334,864.941895 352.026245,892.641846 
	C355.013062,921.459961 333.475281,947.506042 305.667786,947.735107 
	C298.065216,947.797729 290.440247,945.136230 282.492188,943.549194 
z"/>
<path fill="#FBFDFD" opacity="1.000000" stroke="none" 
	d="
M749.191650,1146.807373 
	C729.221008,1115.798218 744.307800,1076.466187 778.962219,1069.339722 
	C798.392151,1065.344116 815.158691,1071.176758 827.404236,1086.895142 
	C839.911194,1102.949219 842.201599,1120.982178 833.238831,1139.464478 
	C824.573059,1157.334351 809.887451,1166.592407 789.803955,1166.991699 
	C772.863831,1167.328613 759.584717,1160.393677 749.191650,1146.807373 
z"/>
<path fill="#FBFDFD" opacity="1.000000" stroke="none" 
	d="
M808.807983,1230.136841 
	C828.783325,1239.699463 839.892822,1259.069580 838.063416,1280.682007 
	C836.436523,1299.901855 822.027039,1317.660034 803.575134,1323.185059 
	C776.478699,1331.298706 748.821960,1315.748413 741.616760,1288.348145 
	C734.464783,1261.150269 751.202332,1233.338501 778.494080,1227.596436 
	C788.594238,1225.471313 798.719849,1226.051880 808.807983,1230.136841 
z"/>
<path fill="#FAFDFC" opacity="1.000000" stroke="none" 
	d="
M1180.908813,845.809204 
	C1175.049438,881.048889 1135.798828,899.010803 1105.257324,879.405518 
	C1085.572632,866.769592 1077.984131,840.836914 1086.990479,818.896118 
	C1095.728394,797.609619 1119.157349,785.159302 1142.042725,789.640991 
	C1164.733887,794.084656 1181.254395,814.345581 1181.343506,837.900513 
	C1181.352905,840.393860 1181.100952,842.888184 1180.908813,845.809204 
z"/>
<path fill="#FBFDFC" opacity="1.000000" stroke="none" 
	d="
M473.575165,797.408142 
	C491.120087,810.627014 498.046783,828.002380 493.678833,848.963928 
	C489.672272,868.191162 477.227966,880.687073 458.306549,885.818542 
	C436.060455,891.851562 413.206818,881.497253 402.390106,861.285217 
	C391.754669,841.411926 396.077637,816.806885 412.891388,801.514771 
	C429.710571,786.217834 453.807495,784.494202 473.575165,797.408142 
z"/>
<path fill="#FAFDFC" opacity="1.000000" stroke="none" 
	d="
M553.781433,898.207092 
	C544.379028,878.171936 546.998413,857.109863 560.492493,842.439087 
	C574.488220,827.222900 595.358521,821.846375 613.798584,828.706543 
	C634.611511,836.449463 647.514038,856.739685 646.029114,879.391357 
	C644.667480,900.163940 629.421509,918.398254 609.472229,923.114014 
	C586.886108,928.453064 565.865845,919.142883 553.781433,898.207092 
z"/>
<path fill="#FAFDFC" opacity="1.000000" stroke="none" 
	d="
M974.734741,924.182983 
	C947.754028,920.711670 928.967957,895.895264 932.236145,868.561584 
	C935.369202,842.358032 960.755554,822.766052 987.134521,826.193604 
	C1013.554810,829.626526 1032.775879,854.553528 1029.506104,881.143555 
	C1026.109131,908.767639 1002.448303,927.533997 974.734741,924.182983 
z"/>
<path fill="#FAFDFC" opacity="1.000000" stroke="none" 
	d="
M676.351074,1018.648193 
	C651.036194,991.244324 661.163269,947.966858 695.196533,936.797668 
	C717.968994,929.324097 742.687012,939.102356 753.676331,959.931763 
	C765.410645,982.173340 759.931702,1008.372253 740.454468,1023.155884 
	C720.965027,1037.948975 695.340149,1036.239868 676.351074,1018.648193 
z"/>
<path fill="#FAFDFC" opacity="1.000000" stroke="none" 
	d="
M914.821655,995.702515 
	C906.630066,1024.718140 878.271545,1039.897949 850.998657,1030.221313 
	C824.820190,1020.933167 811.112244,990.574951 821.714844,965.368408 
	C831.767944,941.467896 856.498840,929.313599 881.074585,936.195435 
	C904.567810,942.774231 919.401306,967.046509 915.381531,992.331665 
	C915.224548,993.318787 915.073425,994.306824 914.821655,995.702515 
z"/>
</svg>